PathFileType	4	(X/Y/Z)	/Users/visionmauri/1_6_1_f_Sports2D/1_6_1_f_Sports2D_m_person00.trc
DataRate	CameraRate	NumFrames	NumMarkers	Units	OrigDataRate	OrigDataStartFrame	OrigNumFrames
30.0	30.0	8	22	m	30.0	391	447
Frame#	Time	Hip			RHip			RKnee			RAnkle			RBigToe			RSmallToe			RHeel			LHip			LKnee			LAnkle			LBigToe			LSmallToe			LHeel			Neck			Head			Nose			RShoulder			RElbow			RWrist			LShoulder			LElbow			LWrist			
		X1	Y1	Z1	X2	Y2	Z2	X3	Y3	Z3	X4	Y4	Z4	X5	Y5	Z5	X6	Y6	Z6	X7	Y7	Z7	X8	Y8	Z8	X9	Y9	Z9	X10	Y10	Z10	X11	Y11	Z11	X12	Y12	Z12	X13	Y13	Z13	X14	Y14	Z14	X15	Y15	Z15	X16	Y16	Z16	X17	Y17	Z17	X18	Y18	Z18	X19	Y19	Z19	X20	Y20	Z20	X21	Y21	Z21	X22	Y22	Z22
391	13.062556053811658	0.6242349499131286	0.7788340228784314	0.0301	0.5241324907723925	0.7014817054922897	0.0301	0.6790822200540049	0.29858652296753596	0.129	0.8689690958770252	-0.08150130625514217	0.023	0.9521001955648033	-0.23974091743738069	0.2179	0.8797829678479973	-0.2528617937050892	0.1804	0.9102783377133921	-0.12346063250923081	-0.0119	0.7489480562796382	0.7927257289325519	0.0301	0.8855212919326129	0.4257923345229151	0.129	1.006477087672326	0.020244761626488878	0.023	1.0572472370809172	-0.1349776066056012	0.2179	1.1075763704693744	-0.10241595548554866	0.1804	1.0090395281360416	-0.035343633710271535	-0.0119	0.4031027649178206	1.399913918211267	0.0008	0.3121160462036239	1.6410997701934884	0.0655	0.39273280354601364	1.430314180260246	0.1076	0.2299391338223292	1.246061331784492	-0.01275	0.2574827632650599	0.9534307988758114	0.0702	0.2756528127435623	0.6992145677500289	0.1076	0.6374273477995219	1.409436385841629	-0.01275	0.8255607826105495	1.147480501175647	0.0702	0.8655305460299435	1.1006662052628962	0.1076
392	13.095964125560537	0.6253421196950482	0.7756135041170827	0.0301	0.5243373826074	0.6976058452796413	0.0301	0.6870940768646783	0.29823174521594265	0.129	0.8808137070705514	-0.11564196445794393	0.023	0.9699980618748055	-0.2611992686804276	0.2179	0.8941674146020656	-0.2816382940322497	0.1804	0.9221107860835686	-0.16390644001598867	-0.0119	0.7499607702889963	0.7910026076550999	0.0301	0.8879313910566933	0.4207254740631212	0.129	1.0035717617791435	0.01987614165811269	0.023	1.0585238184428158	-0.13359669658570253	0.2179	1.1095368578633589	-0.10504900664071766	0.1804	1.0042478256597964	-0.03675095259480838	-0.0119	0.40158112900483367	1.4003868453924	0.0008	0.3087176309950918	1.6406625627460938	0.0655	0.38954017321265794	1.4306355562228237	0.1076	0.22997661220789853	1.2447934991709309	-0.01275	0.2559996025120288	0.9537404182435455	0.0702	0.27482316863352974	0.7025711345640114	0.1076	0.6364317821861316	1.4117547478376797	-0.01275	0.8318491050831295	1.1484174813344643	0.0702	0.8766293534258068	1.0950266551333199	0.1076
393	13.129372197309417	0.6274765955873063	0.771593037282008	0.0301	0.5270827171526837	0.6907340566148955	0.0301	0.6957161794499228	0.291304126906364	0.129	0.8909998866644288	-0.1348636757264368	0.023	0.9788674620825472	-0.2679748352717481	0.2179	0.9022095955091162	-0.29362493283111435	0.1804	0.9321406277836232	-0.1891010163468191	-0.0119	0.7515137677324228	0.7862392967586207	0.0301	0.8909884521581788	0.41242367925382634	0.129	0.9996799432706581	0.023735959187369326	0.023	1.0596100606366334	-0.13343970338531183	0.2179	1.1076888379753704	-0.10115474475795222	0.1804	0.9977514071913924	-0.034002314667340175	-0.0119	0.40024669270336966	1.4008288967163074	0.0008	0.3068327976878107	1.6379005325057185	0.0655	0.3882044621112674	1.4325768419551745	0.1076	0.22859454572495602	1.2431281926516407	-0.01275	0.2526538478291151	0.9533331595105272	0.0702	0.2730400197755793	0.7039115435872253	0.1076	0.6349572404973957	1.4125083900041187	-0.01275	0.834436935685593	1.1513608491347078	0.0702	0.8832513930061745	1.086428266095923	0.1076
394	13.162780269058295	0.6295990410174608	0.7663912988612055	0.0301	0.5301496855661888	0.6831958357556571	0.0301	0.7018426603702818	0.2828802992220428	0.129	0.8993219222061584	-0.1434634100738018	0.023	0.9831509834350157	-0.2712208104994201	0.2179	0.9071412933332264	-0.29844936447319426	0.1804	0.9383407631722651	-0.2022593132176199	-0.0119	0.7528794707133628	0.7799443979179818	0.0301	0.8926035645896394	0.40185045358386107	0.129	0.9957502065721932	0.028249996284807226	0.023	1.0615505089865753	-0.1324098742664441	0.2179	1.105489640832991	-0.09143839279638287	0.1804	0.9903336725632079	-0.02661562873387245	-0.0119	0.3990592376075371	1.40051349130207	0.0008	0.30457895893897513	1.6370399820106403	0.0655	0.3879747543854734	1.4356455532049004	0.1076	0.22539547455091627	1.2409188493644911	-0.01275	0.24898915374100225	0.9536849360992176	0.0702	0.2707799060011326	0.7033173283241354	0.1076	0.6340508945361376	1.41195322866908	-0.01275	0.8334175949716528	1.1530024660671574	0.0702	0.9002677839406006	1.048589729112368	0.1076
395	13.196188340807174	0.6295711611197653	0.7622687019848071	0.0301	0.5307701873682207	0.6781710246711191	0.0301	0.7037589286197968	0.2784873921473151	0.129	0.9046161740161983	-0.148939219614917	0.023	0.9885993169160042	-0.2815579014161674	0.2179	0.9125398089477164	-0.30759930642773065	0.1804	0.9408273197409636	-0.2075432500058339	-0.0119	0.7527753819589368	0.7758127606420371	0.0301	0.8913355239388822	0.39278719614096413	0.129	0.9938960692915212	0.030100966357048238	0.023	1.0643820738205274	-0.13095743637253926	0.2179	1.1069241102857232	-0.08321400943748893	0.1804	0.9840502880714526	-0.01848269805609536	-0.0119	0.39692420047664995	1.39995959549431	0.0008	0.3004930947307036	1.6412044832991755	0.0655	0.38568484950128606	1.4406908217647316	0.1076	0.22038713883374259	1.2379148801009368	-0.01275	0.24660349208067298	0.954961166604391	0.0702	0.26798209637440573	0.7019853238228976	0.1076	0.6327339093965414	1.4113620260371533	-0.01275	0.8295759056620159	1.151438108693686	0.0702	0.9210689280812626	1.0022143060301516	0.1076
396	13.229596412556052	0.6273601887897028	0.7610838394501973	0.0301	0.529047420842454	0.6760269189627115	0.0301	0.703917266209732	0.2755710327071931	0.129	0.9067476129463822	-0.1559340785107775	0.023	0.9944042541485615	-0.29702500780822505	0.2179	0.9174628370033902	-0.3209307835992129	0.1804	0.941651732532584	-0.21043851624630092	-0.0119	0.7511017210336619	0.7749297418332389	0.0301	0.8886280330726093	0.38749326736873735	0.129	0.9949210750341606	0.029421726762199455	0.023	1.0665780119113644	-0.1300498056312722	0.2179	1.1115303382310473	-0.08048120974926291	0.1804	0.9810995405460224	-0.013446246027156092	-0.0119	0.3915597624581421	1.3997650972736053	0.0008	0.2934506435120998	1.650465994579704	0.0655	0.3772115474149797	1.4526691555537015	0.1076	0.21332118229414282	1.2342339230136707	-0.01275	0.24475748849248055	0.9549438646117062	0.0702	0.2646252755420486	0.7009361254848131	0.1076	0.628582304688043	1.4117388779358475	-0.01275	0.8228069583432973	1.149813881964209	0.0702	0.925805830684815	0.9899315906889964	0.1076
397	13.263004484304933	0.6247146815040502	0.7615779004961112	0.0301	0.5256538450130614	0.675189957235836	0.0301	0.7044400242823817	0.2712119104137265	0.129	0.9074692711452825	-0.16251114004242517	0.023	0.9976362805746244	-0.3095931330003205	0.2179	0.9201747567549681	-0.3310694346857511	0.1804	0.9421557153942121	-0.2135534696082911	-0.0119	0.748623439432098	0.7750317166813357	0.0301	0.8869355754332453	0.38485606008372786	0.129	0.9973173327730228	0.027846003544165974	0.023	1.0672996815439117	-0.13035890985242957	0.2179	1.1159899974280079	-0.08181834019345223	0.1804	0.9812869609452594	-0.013181033259921213	-0.0119	0.3829126015415085	1.4001690277733387	0.0008	0.2826694568455654	1.6622838783021032	0.0655	0.3610151897901302	1.4717124629362113	0.1076	0.20525471459068254	1.231695773544678	-0.01275	0.24193014837492818	0.9533762512441619	0.0702	0.2606577145703289	0.7002040223311357	0.1076	0.6213837664038706	1.4132691864244495	-0.01275	0.8144144520725503	1.150126881607166	0.0702	0.9171313774216598	1.0036239601568027	0.1076
398	13.296412556053811	0.6227854849744927	0.7615274912796343	0.0301	0.521343636273845	0.6743522188445237	0.0301	0.7046260634354939	0.2689207002915357	0.129	0.9084662199352166	-0.1649749657718056	0.023	0.9996154842446514	-0.31634095894025377	0.2179	0.922423798551463	-0.33549790066463964	0.1804	0.9422672261175742	-0.2150667695038784	-0.0119	0.7464790570813983	0.7742237086499566	0.0301	0.8859567184852042	0.38396484430502364	0.129	0.9995188281667109	0.025854772573141425	0.023	1.0678597234366243	-0.13260736430284534	0.2179	1.117852314915571	-0.08396211440496844	0.1804	0.9829234298001945	-0.016721445345133507	-0.0119	0.37384617015782234	1.4024072920321002	0.0008	0.26970423360975193	1.673862753650447	0.0655	0.34106085794453805	1.489499204529334	0.1076	0.19824213001213495	1.2327740102244849	-0.01275	0.23815096964905444	0.9536161955164024	0.0702	0.25569727932716035	0.6993679275408274	0.1076	0.6124431862088382	1.4164137692299323	-0.01275	0.8072503808307612	1.1519609212905646	0.0702	0.9053772487368144	1.0179965095774435	0.1076
